<?xml version="1.0" encoding="UTF-8" standalone="no"?>
<!-- Created with Inkscape (http://www.inkscape.org/) -->

<svg
   width="1080"
   height="1122.5197"
   viewBox="0 0 285.74999 296.99999"
   version="1.1"
   id="svg1"
   inkscape:version="1.4.2 (f4327f4, 2025-05-13)"
   sodipodi:docname="logo.svg"
   xmlns:inkscape="http://www.inkscape.org/namespaces/inkscape"
   xmlns:sodipodi="http://sodipodi.sourceforge.net/DTD/sodipodi-0.dtd"
   xmlns="http://www.w3.org/2000/svg"
   xmlns:svg="http://www.w3.org/2000/svg">
  <sodipodi:namedview
     id="namedview1"
     pagecolor="#ffffff"
     bordercolor="#000000"
     borderopacity="0.25"
     inkscape:showpageshadow="2"
     inkscape:pageopacity="0.0"
     inkscape:pagecheckerboard="0"
     inkscape:deskcolor="#d1d1d1"
     inkscape:document-units="mm"
     inkscape:zoom="0.56252586"
     inkscape:cx="607.0832"
     inkscape:cy="470.2006"
     inkscape:window-width="1920"
     inkscape:window-height="1137"
     inkscape:window-x="-8"
     inkscape:window-y="-8"
     inkscape:window-maximized="1"
     inkscape:current-layer="g2"
     showguides="true"
     inkscape:lockguides="false" />
  <defs
     id="defs1" />
  <g
     inkscape:label="Capa 1"
     inkscape:groupmode="layer"
     id="layer1">
    <g
       id="g1">
      <g
         id="g2"
         transform="matrix(1.0793739,0,0,1.0793739,-5.5416807,-18.964805)">
        <path
           style="font-variation-settings:normal;opacity:1;vector-effect:none;fill:#2f9cc4;fill-opacity:1;stroke-width:0.228281;stroke-linecap:butt;stroke-linejoin:miter;stroke-miterlimit:4;stroke-dasharray:none;stroke-dashoffset:0;stroke-opacity:1;-inkscape-stroke:none;stop-color:#000000;stop-opacity:1"
           d="m 5.62359,76.302488 c 0,0 31.50226,-34.582389 39.487843,-38.418247 11.536201,-0.695157 55.988187,-0.537405 63.536957,-0.4213 C 109.29915,40.659488 143.16678,199.31 143.59561,199.31 l 58.0501,-144.942346 67.71764,15.702108 -76.98518,207.937728 c -2.26914,3.23237 -78.34526,0.71558 -78.34526,0.71558 0,0 -56.532923,-182.71762 -57.563321,-182.397966 -1.030397,0.319658 -18.593276,22.695016 -18.593276,22.695016 z"
           id="path1"
           sodipodi:nodetypes="ccccccccscc" />
        <path
           style="font-variation-settings:normal;vector-effect:none;fill:#206c87;fill-opacity:1;stroke-width:0.228281;stroke-linecap:butt;stroke-linejoin:miter;stroke-miterlimit:4;stroke-dasharray:none;stroke-dashoffset:0;stroke-opacity:1;-inkscape-stroke:none;stop-color:#000000"
           d="M 108.6544,37.480131 154.42476,173.51373 113.44985,279.489 c 0,0 -55.949863,-183.48355 -56.980261,-183.163896 C 55.439192,96.644762 108.6544,37.480131 108.6544,37.480131 Z"
           id="path1-2"
           sodipodi:nodetypes="cccsc" />
        <path
           style="font-variation-settings:normal;vector-effect:none;fill:#000000;fill-opacity:0.0781893;stroke-width:0.228281;stroke-linecap:butt;stroke-linejoin:miter;stroke-miterlimit:4;stroke-dasharray:none;stroke-dashoffset:0;stroke-opacity:1;-inkscape-stroke:none;stop-color:#000000"
           d="m 108.62933,37.531693 c 0,0 2.01764,7.660777 1.5951,8.36879 -2.68078,4.491974 -20.6157,37.991613 -26.267392,42.265478 -5.651692,4.273866 -19.299511,11.210449 -24.539653,13.470619 -0.642257,0.27701 -2.432598,-5.471302 -2.947796,-5.311476 -1.030398,0.319653 52.159741,-58.793411 52.159741,-58.793411 z"
           id="path1-2-6"
           sodipodi:nodetypes="cssssc" />
      </g>
    </g>
  </g>
</svg>
